<?xml version="1.0" standalone="no"?>
 <!DOCTYPE svg PUBLIC "-//W3C//DTD SVG 1.1//EN" 
 "http://www.w3.org/Graphics/SVG/1.1/DTD/svg11.dtd"> 
<svg
  xmlns:svg="http://www.w3.org/2000/svg"
  xmlns="http://www.w3.org/2000/svg"
  xmlns:xlink="http://www.w3.org/1999/xlink"
  version="1.1"
  width="26.1112mm" height="9.8552mm" viewBox="0.0000 0.0000 26.1112 9.8552">
<title>SVG Image created as microscout-tof-front-F_Mask.svg date 2026/10/09 02:17:06 </title>
  <desc>Image generated by PCBNEW </desc>
<g style="fill:#000000; fill-opacity:1.0000;stroke:#000000; stroke-opacity:1.0000;
stroke-linecap:round; stroke-linejoin:round;"
 transform="translate(0 0) scale(1 1)">
</g>
<g style="fill:#000000; fill-opacity:0.0; 
stroke:#000000; stroke-width:0.0000; stroke-opacity:1; 
stroke-linecap:round; stroke-linejoin:round;">
<g >
</g>
<g style="fill:#000000; fill-opacity:0.0; 
stroke:#000000; stroke-width:0.0000; stroke-opacity:1; 
stroke-linecap:round; stroke-linejoin:round;">
</g>
<g style="fill:#000000; fill-opacity:1.0000; 
stroke:#000000; stroke-width:0.0000; stroke-opacity:1; 
stroke-linecap:round; stroke-linejoin:round;">
<path style="fill:#000000; fill-opacity:1.0000; 
stroke:#000000; stroke-width:0.0000; stroke-opacity:1; 
stroke-linecap:round; stroke-linejoin:round;fill-rule:evenodd;"
d="M 10.4081,2.2832
10.4176,2.2354
10.4447,2.1949
10.4853,2.1678
10.5331,2.1582
10.7831,2.1582
10.8309,2.1678
10.8715,2.1949
10.8986,2.2354
10.9081,2.2832
10.9081,2.5332
10.8986,2.5811
10.8715,2.6216
10.8309,2.6487
10.7831,2.6582
10.5331,2.6582
10.4853,2.6487
10.4447,2.6216
10.4176,2.5811
10.4081,2.5332
Z" /> 
<path style="fill:#000000; fill-opacity:1.0000; 
stroke:#000000; stroke-width:0.0000; stroke-opacity:1; 
stroke-linecap:round; stroke-linejoin:round;fill-rule:evenodd;"
d="M 11.2081,2.2832
11.2176,2.2354
11.2447,2.1949
11.2853,2.1678
11.3331,2.1582
11.5831,2.1582
11.6309,2.1678
11.6715,2.1949
11.6986,2.2354
11.7081,2.2832
11.7081,2.5332
11.6986,2.5811
11.6715,2.6216
11.6309,2.6487
11.5831,2.6582
11.3331,2.6582
11.2853,2.6487
11.2447,2.6216
11.2176,2.5811
11.2081,2.5332
Z" /> 
<path style="fill:#000000; fill-opacity:1.0000; 
stroke:#000000; stroke-width:0.0000; stroke-opacity:1; 
stroke-linecap:round; stroke-linejoin:round;fill-rule:evenodd;"
d="M 12.0081,2.2832
12.0176,2.2354
12.0447,2.1949
12.0853,2.1678
12.1331,2.1582
12.3831,2.1582
12.4309,2.1678
12.4715,2.1949
12.4986,2.2354
12.5081,2.2832
12.5081,2.5332
12.4986,2.5811
12.4715,2.6216
12.4309,2.6487
12.3831,2.6582
12.1331,2.6582
12.0853,2.6487
12.0447,2.6216
12.0176,2.5811
12.0081,2.5332
Z" /> 
<path style="fill:#000000; fill-opacity:1.0000; 
stroke:#000000; stroke-width:0.0000; stroke-opacity:1; 
stroke-linecap:round; stroke-linejoin:round;fill-rule:evenodd;"
d="M 12.8081,2.2832
12.8176,2.2354
12.8447,2.1949
12.8853,2.1678
12.9331,2.1582
13.1831,2.1582
13.2309,2.1678
13.2715,2.1949
13.2986,2.2354
13.3081,2.2832
13.3081,2.5332
13.2986,2.5811
13.2715,2.6216
13.2309,2.6487
13.1831,2.6582
12.9331,2.6582
12.8853,2.6487
12.8447,2.6216
12.8176,2.5811
12.8081,2.5332
Z" /> 
<path style="fill:#000000; fill-opacity:1.0000; 
stroke:#000000; stroke-width:0.0000; stroke-opacity:1; 
stroke-linecap:round; stroke-linejoin:round;fill-rule:evenodd;"
d="M 13.6081,2.2832
13.6176,2.2354
13.6447,2.1949
13.6853,2.1678
13.7331,2.1582
13.9831,2.1582
14.0309,2.1678
14.0715,2.1949
14.0986,2.2354
14.1081,2.2832
14.1081,2.5332
14.0986,2.5811
14.0715,2.6216
14.0309,2.6487
13.9831,2.6582
13.7331,2.6582
13.6853,2.6487
13.6447,2.6216
13.6176,2.5811
13.6081,2.5332
Z" /> 
<path style="fill:#000000; fill-opacity:1.0000; 
stroke:#000000; stroke-width:0.0000; stroke-opacity:1; 
stroke-linecap:round; stroke-linejoin:round;fill-rule:evenodd;"
d="M 14.4081,2.2832
14.4176,2.2354
14.4447,2.1949
14.4853,2.1678
14.5331,2.1582
14.7831,2.1582
14.8309,2.1678
14.8715,2.1949
14.8986,2.2354
14.9081,2.2832
14.9081,2.5332
14.8986,2.5811
14.8715,2.6216
14.8309,2.6487
14.7831,2.6582
14.5331,2.6582
14.4853,2.6487
14.4447,2.6216
14.4176,2.5811
14.4081,2.5332
Z" /> 
<path style="fill:#000000; fill-opacity:1.0000; 
stroke:#000000; stroke-width:0.0000; stroke-opacity:1; 
stroke-linecap:round; stroke-linejoin:round;fill-rule:evenodd;"
d="M 15.2081,2.2832
15.2176,2.2354
15.2447,2.1949
15.2853,2.1678
15.3331,2.1582
15.5831,2.1582
15.6309,2.1678
15.6715,2.1949
15.6986,2.2354
15.7081,2.2832
15.7081,2.5332
15.6986,2.5811
15.6715,2.6216
15.6309,2.6487
15.5831,2.6582
15.3331,2.6582
15.2853,2.6487
15.2447,2.6216
15.2176,2.5811
15.2081,2.5332
Z" /> 
<path style="fill:#000000; fill-opacity:1.0000; 
stroke:#000000; stroke-width:0.0000; stroke-opacity:1; 
stroke-linecap:round; stroke-linejoin:round;fill-rule:evenodd;"
d="M 10.4081,3.2832
10.4176,3.2354
10.4447,3.1949
10.4853,3.1678
10.5331,3.1582
10.7831,3.1582
10.8309,3.1678
10.8715,3.1949
10.8986,3.2354
10.9081,3.2832
10.9081,3.5332
10.8986,3.5811
10.8715,3.6216
10.8309,3.6487
10.7831,3.6582
10.5331,3.6582
10.4853,3.6487
10.4447,3.6216
10.4176,3.5811
10.4081,3.5332
Z" /> 
<path style="fill:#000000; fill-opacity:1.0000; 
stroke:#000000; stroke-width:0.0000; stroke-opacity:1; 
stroke-linecap:round; stroke-linejoin:round;fill-rule:evenodd;"
d="M 12.2581,3.2582
12.2695,3.2008
12.3020,3.1522
12.3507,3.1197
12.4081,3.1082
13.7081,3.1082
13.7655,3.1197
13.8142,3.1522
13.8467,3.2008
13.8581,3.2582
13.8581,3.5582
13.8467,3.6157
13.8142,3.6643
13.7655,3.6968
13.7081,3.7083
12.4081,3.7083
12.3507,3.6968
12.3020,3.6643
12.2695,3.6157
12.2581,3.5582
Z" /> 
<path style="fill:#000000; fill-opacity:1.0000; 
stroke:#000000; stroke-width:0.0000; stroke-opacity:1; 
stroke-linecap:round; stroke-linejoin:round;fill-rule:evenodd;"
d="M 15.2081,3.2832
15.2176,3.2354
15.2447,3.1949
15.2853,3.1678
15.3331,3.1582
15.5831,3.1582
15.6309,3.1678
15.6715,3.1949
15.6986,3.2354
15.7081,3.2832
15.7081,3.5332
15.6986,3.5811
15.6715,3.6216
15.6309,3.6487
15.5831,3.6582
15.3331,3.6582
15.2853,3.6487
15.2447,3.6216
15.2176,3.5811
15.2081,3.5332
Z" /> 
<path style="fill:#000000; fill-opacity:1.0000; 
stroke:#000000; stroke-width:0.0000; stroke-opacity:1; 
stroke-linecap:round; stroke-linejoin:round;fill-rule:evenodd;"
d="M 10.4081,4.2832
10.4176,4.2354
10.4447,4.1949
10.4853,4.1678
10.5331,4.1582
10.7831,4.1582
10.8309,4.1678
10.8715,4.1949
10.8986,4.2354
10.9081,4.2832
10.9081,4.5332
10.8986,4.5811
10.8715,4.6216
10.8309,4.6487
10.7831,4.6582
10.5331,4.6582
10.4853,4.6487
10.4447,4.6216
10.4176,4.5811
10.4081,4.5332
Z" /> 
<path style="fill:#000000; fill-opacity:1.0000; 
stroke:#000000; stroke-width:0.0000; stroke-opacity:1; 
stroke-linecap:round; stroke-linejoin:round;fill-rule:evenodd;"
d="M 11.2081,4.2832
11.2176,4.2354
11.2447,4.1949
11.2853,4.1678
11.3331,4.1582
11.5831,4.1582
11.6309,4.1678
11.6715,4.1949
11.6986,4.2354
11.7081,4.2832
11.7081,4.5332
11.6986,4.5811
11.6715,4.6216
11.6309,4.6487
11.5831,4.6582
11.3331,4.6582
11.2853,4.6487
11.2447,4.6216
11.2176,4.5811
11.2081,4.5332
Z" /> 
<path style="fill:#000000; fill-opacity:1.0000; 
stroke:#000000; stroke-width:0.0000; stroke-opacity:1; 
stroke-linecap:round; stroke-linejoin:round;fill-rule:evenodd;"
d="M 12.0081,4.2832
12.0176,4.2354
12.0447,4.1949
12.0853,4.1678
12.1331,4.1582
12.3831,4.1582
12.4309,4.1678
12.4715,4.1949
12.4986,4.2354
12.5081,4.2832
12.5081,4.5332
12.4986,4.5811
12.4715,4.6216
12.4309,4.6487
12.3831,4.6582
12.1331,4.6582
12.0853,4.6487
12.0447,4.6216
12.0176,4.5811
12.0081,4.5332
Z" /> 
<path style="fill:#000000; fill-opacity:1.0000; 
stroke:#000000; stroke-width:0.0000; stroke-opacity:1; 
stroke-linecap:round; stroke-linejoin:round;fill-rule:evenodd;"
d="M 12.8081,4.2832
12.8176,4.2354
12.8447,4.1949
12.8853,4.1678
12.9331,4.1582
13.1831,4.1582
13.2309,4.1678
13.2715,4.1949
13.2986,4.2354
13.3081,4.2832
13.3081,4.5332
13.2986,4.5811
13.2715,4.6216
13.2309,4.6487
13.1831,4.6582
12.9331,4.6582
12.8853,4.6487
12.8447,4.6216
12.8176,4.5811
12.8081,4.5332
Z" /> 
<path style="fill:#000000; fill-opacity:1.0000; 
stroke:#000000; stroke-width:0.0000; stroke-opacity:1; 
stroke-linecap:round; stroke-linejoin:round;fill-rule:evenodd;"
d="M 13.6081,4.2832
13.6176,4.2354
13.6447,4.1949
13.6853,4.1678
13.7331,4.1582
13.9831,4.1582
14.0309,4.1678
14.0715,4.1949
14.0986,4.2354
14.1081,4.2832
14.1081,4.5332
14.0986,4.5811
14.0715,4.6216
14.0309,4.6487
13.9831,4.6582
13.7331,4.6582
13.6853,4.6487
13.6447,4.6216
13.6176,4.5811
13.6081,4.5332
Z" /> 
<path style="fill:#000000; fill-opacity:1.0000; 
stroke:#000000; stroke-width:0.0000; stroke-opacity:1; 
stroke-linecap:round; stroke-linejoin:round;fill-rule:evenodd;"
d="M 14.4081,4.2832
14.4176,4.2354
14.4447,4.1949
14.4853,4.1678
14.5331,4.1582
14.7831,4.1582
14.8309,4.1678
14.8715,4.1949
14.8986,4.2354
14.9081,4.2832
14.9081,4.5332
14.8986,4.5811
14.8715,4.6216
14.8309,4.6487
14.7831,4.6582
14.5331,4.6582
14.4853,4.6487
14.4447,4.6216
14.4176,4.5811
14.4081,4.5332
Z" /> 
<path style="fill:#000000; fill-opacity:1.0000; 
stroke:#000000; stroke-width:0.0000; stroke-opacity:1; 
stroke-linecap:round; stroke-linejoin:round;fill-rule:evenodd;"
d="M 15.2081,4.2832
15.2176,4.2354
15.2447,4.1949
15.2853,4.1678
15.3331,4.1582
15.5831,4.1582
15.6309,4.1678
15.6715,4.1949
15.6986,4.2354
15.7081,4.2832
15.7081,4.5332
15.6986,4.5811
15.6715,4.6216
15.6309,4.6487
15.5831,4.6582
15.3331,4.6582
15.2853,4.6487
15.2447,4.6216
15.2176,4.5811
15.2081,4.5332
Z" /> 
</g>
<g >
</g>
<g >
</g>
<g >
</g>
<g >
</g>
<g >
</g>
<g >
</g>
<g >
</g>
<g >
</g>
<g >
</g>
<g >
</g>
<g >
</g>
<g >
</g>
</g>
<g style="fill:#000000; fill-opacity:1.0000; 
stroke:#000000; stroke-width:0.0000; stroke-opacity:1; 
stroke-linecap:round; stroke-linejoin:round;">
</g>
<g style="fill:#000000; fill-opacity:1.0000; 
stroke:#000000; stroke-width:0.1000; stroke-opacity:1; 
stroke-linecap:round; stroke-linejoin:round;">
</g>
<g style="fill:#000000; fill-opacity:0.0; 
stroke:#000000; stroke-width:0.1000; stroke-opacity:1; 
stroke-linecap:round; stroke-linejoin:round;">
<path d="M8.0581 0.8082
L18.0581 0.8082
" />
<path d="M8.0581 9.8082
L8.0581 0.8082
" />
<path d="M18.0581 0.8082
L18.0581 9.8082
" />
<path d="M18.0581 9.8082
L8.0581 9.8082
" />
<g >
</g>
<g >
</g>
<g >
</g>
<g >
</g>
<g >
</g>
<g >
</g>
<g >
</g>
<g >
</g>
<g >
</g>
<g >
</g>
<g >
</g>
<g >
</g>
<g >
</g>
</g> 
</svg>
